<?xml version="1.0" standalone="no"?>
<!DOCTYPE svg PUBLIC "-//W3C//DTD SVG 20010904//EN"
 "http://www.w3.org/TR/2001/REC-SVG-20010904/DTD/svg10.dtd">
<svg version="1.0" xmlns="http://www.w3.org/2000/svg"
 width="80.000000pt" height="80.000000pt" viewBox="0 0 80.000000 80.000000"
 preserveAspectRatio="xMidYMid meet">
<metadata>
Created by potrace 1.11, written by Peter Selinger 2001-2013
</metadata>
<g transform="translate(0.000000,80.000000) scale(0.100000,-0.100000)"
fill="#000000" stroke="none">
<path d="M305 790 c-3 -6 -13 -10 -21 -10 -77 0 -242 -153 -259 -240 -2 -11
-7 -26 -12 -33 -9 -14 -13 -168 -5 -182 4 -5 8 -18 9 -29 13 -80 104 -193 197
-242 58 -31 86 -37 181 -37 93 0 111 3 183 40 124 63 207 196 209 335 3 172
-78 300 -237 375 -44 21 -73 27 -147 29 -52 2 -95 -1 -98 -6z m145 -21 c0 -3
10 -5 22 -4 12 1 38 -7 59 -17 21 -10 42 -18 46 -18 5 0 34 -24 65 -52 61 -57
103 -129 112 -193 3 -22 3 -33 0 -25 -15 39 -17 46 -19 55 -4 23 -30 75 -37
75 -4 0 -8 5 -8 11 0 29 -170 160 -170 132 0 -5 -4 -2 -8 4 -5 7 -35 16 -68
19 -32 4 -61 8 -62 9 -2 2 -20 -2 -40 -9 -21 -7 -43 -11 -49 -9 -7 3 -13 0
-13 -6 0 -6 -3 -10 -7 -9 -47 12 -161 -94 -204 -189 -31 -70 -45 -84 -24 -24
23 65 42 95 90 144 54 55 103 82 183 101 57 13 132 16 132 5z m-413 -319 c1
-11 -2 -20 -7 -20 -6 0 -7 17 -1 38 3 8 7 -1 8 -18z m726 -30 c3 -11 1 -18 -4
-14 -5 3 -9 12 -9 20 0 20 7 17 13 -6z m-727 -44 c0 -14 -3 -23 -7 -20 -6 3
-6 22 0 42 3 10 7 -2 7 -22z m729 -11 c-2 -33 -15 -45 -15 -13 0 20 7 38 14
38 1 0 1 -11 1 -25z m-705 -90 c0 -5 -5 -3 -10 5 -5 8 -10 20 -10 25 0 6 5 3
10 -5 5 -8 10 -19 10 -25z m690 5 c0 -5 -5 -10 -11 -10 -5 0 -7 5 -4 10 3 6 8
10 11 10 2 0 4 -4 4 -10z m-39 -63 c-10 -9 -11 -8 -5 6 3 10 9 15 12 12 3 -3
0 -11 -7 -18z m-603 -42 c-3 -3 -9 2 -12 12 -6 14 -5 15 5 6 7 -7 10 -15 7
-18z m369 -131 c-3 -3 -12 -4 -19 -1 -8 3 -5 6 6 6 11 1 17 -2 13 -5z"/>
</g>
</svg>
